<svg width="183" height="79" viewBox="0 0 183 79" fill="none" xmlns="http://www.w3.org/2000/svg">
<path d="M27.4431 0C12.287 0 0 17.6851 0 39.5002C0 61.3164 12.287 79 27.4431 79C42.6008 79 54.8865 61.3164 54.8865 39.5002C54.8865 17.6865 42.6008 0.00188675 27.4428 0.00188675L27.4431 0ZM40.0283 56.9707C39.5368 58.131 38.4816 58.499 37.6754 57.7867C31.232 52.1217 23.1207 50.8387 13.568 53.9802C12.6475 54.282 11.7299 53.4519 11.5202 52.1264C11.3095 50.801 11.8839 49.4802 12.8068 49.1784C23.2606 45.7407 32.2276 47.2209 39.4614 53.5839C40.2676 54.2962 40.5232 55.8103 40.0283 56.9707ZM43.3873 46.2152C42.7679 47.6642 41.4506 48.1218 40.4445 47.2303C33.0678 40.704 21.8233 38.8139 13.0981 42.6261C11.9665 43.1181 10.7714 42.2002 10.4279 40.5743C10.0871 38.9455 10.7252 37.2286 11.8548 36.7333C21.8213 32.3806 34.2115 34.489 42.6827 41.9818C43.6888 42.8733 44.0067 44.769 43.3873 46.2152ZM43.6757 35.0154C34.8309 27.4538 20.2382 26.7585 11.7935 30.4476C10.4374 31.0395 9.0034 29.9377 8.59246 27.9858C8.18151 26.033 8.94638 23.9703 10.3034 23.3769C19.9973 19.1412 36.1122 19.9595 46.2954 28.6608C47.5177 29.7028 47.9175 31.9702 47.1933 33.7235C46.4723 35.4791 44.8928 36.0578 43.677 35.0154H43.6757ZM74.6636 36.4644C69.925 34.8381 69.0828 33.6966 69.0828 31.298C69.0828 29.032 70.564 27.5071 72.7695 27.5071C74.9061 27.5071 77.0231 28.6651 79.2449 31.049C79.3105 31.1211 79.3957 31.1499 79.4776 31.131C79.5628 31.1131 79.6349 31.0476 79.6841 30.949L81.9977 26.2547C82.0927 26.0613 82.0665 25.7948 81.9387 25.6472C79.2941 22.5939 76.3185 21.1095 72.8383 21.1095C67.7228 21.1095 64.1475 25.5288 64.1475 31.8518C64.1475 38.6323 67.2312 41.0332 72.5597 42.8865C77.0919 44.3898 77.8587 45.6492 77.8587 47.9001C77.8587 50.3953 76.312 51.9472 73.8214 51.9472C71.0555 51.9472 68.7977 50.6029 66.2743 47.4614C66.2121 47.3812 66.1268 47.3482 66.0482 47.3529C65.963 47.3624 65.8876 47.419 65.8352 47.5086L63.2398 51.9519C63.1316 52.1406 63.1447 52.4142 63.2693 52.5745C66.2055 56.348 69.8168 58.3386 73.7165 58.3386C79.2285 58.3386 82.7907 54.0038 82.7907 47.2916C82.8005 41.628 80.4443 38.4913 74.6734 36.4706L74.6636 36.4644ZM95.2632 29.7381C92.8742 29.7381 90.9146 31.0928 89.2957 33.8687V30.7443C89.2957 30.4976 89.158 30.2966 88.9876 30.2966H84.7438C84.5734 30.2966 84.4358 30.4976 84.4358 30.7443V65.4611C84.4358 65.7064 84.5734 65.9092 84.7438 65.9092H88.9876C89.158 65.9092 89.2957 65.7064 89.2957 65.4611V54.5037C90.9146 57.1122 92.8742 58.3905 95.2632 58.3905C99.7036 58.3905 104.2 53.4707 104.2 44.0657C104.206 34.6588 99.7102 29.7377 95.2665 29.7377L95.2632 29.7381ZM99.2645 44.0657C99.2645 48.8529 97.2163 52.1972 94.2801 52.1972C91.3799 52.1972 89.1908 48.702 89.1908 44.0657C89.1908 39.429 91.3799 35.9347 94.2801 35.9347C97.1672 35.9343 99.2645 39.3535 99.2645 44.0657ZM115.719 29.7381C110 29.7381 105.52 36.0758 105.52 44.1681C105.52 52.1736 109.971 58.4424 115.65 58.4424C121.388 58.4424 125.881 52.1264 125.881 44.0657C125.881 36.0324 121.417 29.7381 115.719 29.7381ZM115.719 52.2444C112.678 52.2444 110.384 48.7255 110.384 44.0634C110.384 39.38 112.599 35.9814 115.65 35.9814C118.711 35.9814 121.018 39.4988 121.018 44.1657C121.018 48.8482 118.789 52.2444 115.719 52.2444ZM138.091 30.2966H133.421V23.426C133.421 23.1798 133.284 22.9788 133.113 22.9788H128.869C128.699 22.9788 128.558 23.1798 128.558 23.426V30.2966H126.52C126.349 30.2966 126.212 30.4976 126.212 30.7443V35.9928C126.212 36.239 126.349 36.4404 126.52 36.4404H128.558V50.0227C128.558 55.5084 130.456 58.2914 134.201 58.2914C135.722 58.2914 136.983 57.8386 138.173 56.8669C138.271 56.7914 138.33 56.6405 138.33 56.4801V51.4802C138.33 51.3293 138.275 51.183 138.183 51.1029C138.091 51.018 137.976 51.0132 137.881 51.084C137.065 51.6736 136.276 51.9472 135.391 51.9472C134.031 51.9472 133.421 51.0557 133.421 49.0652V36.4427H138.091C138.262 36.4427 138.399 36.2418 138.399 35.9951V30.7471C138.406 30.5004 138.268 30.2995 138.094 30.2995L138.091 30.2966ZM154.358 30.3235V29.4797C154.358 26.9972 155.02 25.8901 156.502 25.8901C157.386 25.8901 158.098 26.1429 158.894 26.525C158.992 26.5693 159.094 26.5472 159.172 26.4627C159.254 26.3783 159.3 26.2429 159.3 26.0995V20.9534C159.3 20.7567 159.215 20.5827 159.081 20.5246C158.242 20.1647 157.167 19.7954 155.555 19.7954C151.639 19.7954 149.564 22.9718 149.564 28.9778V30.2702H147.526C147.355 30.2702 147.214 30.4712 147.214 30.7174V35.9928C147.214 36.239 147.355 36.4404 147.526 36.4404H149.564V57.3858C149.564 57.6358 149.705 57.8339 149.875 57.8339H154.116C154.29 57.8339 154.427 57.6358 154.427 57.3858V36.4418H158.389L164.458 57.3858C163.77 59.5838 163.092 60.0225 162.168 60.0225C161.421 60.0225 160.631 59.7018 159.828 59.065C159.753 59.0084 159.661 58.9989 159.582 59.032C159.5 59.0744 159.431 59.1593 159.399 59.2725L157.96 63.8149C157.891 64.0319 157.95 64.2819 158.094 64.3951C159.595 65.5649 160.949 66.0649 162.623 66.0649C165.756 66.0649 167.49 63.9611 169.013 58.3103L176.374 30.9348C176.413 30.7971 176.4 30.6414 176.341 30.5193C176.285 30.398 176.19 30.3249 176.089 30.3249H171.671C171.537 30.3249 171.419 30.4462 171.376 30.6249L166.851 49.2255L161.896 30.6127C161.85 30.4396 161.735 30.3249 161.607 30.3249H154.358V30.3235ZM144.927 30.2966H140.683C140.513 30.2966 140.372 30.4976 140.372 30.7443V57.3858C140.372 57.6358 140.513 57.8339 140.683 57.8339H144.927C145.097 57.8339 145.238 57.6358 145.238 57.3858V30.7461C145.238 30.4995 145.101 30.2985 144.927 30.2985V30.2966ZM142.83 18.1652C141.149 18.1652 139.785 20.1237 139.785 22.543C139.785 24.9637 141.149 26.9245 142.83 26.9245C144.511 26.9245 145.871 24.9637 145.871 22.543C145.871 20.1242 144.508 18.1652 142.83 18.1652ZM179.998 38.863C178.32 38.863 177.013 36.922 177.013 34.5649C177.013 32.2079 178.337 30.2447 180.015 30.2447C181.692 30.2447 183 32.1853 183 34.5404C183 36.8975 181.676 38.863 179.998 38.863ZM180.015 30.6721C178.484 30.6721 177.327 32.4221 177.327 34.5649C177.327 36.7069 178.478 38.4333 179.998 38.4333C181.529 38.4333 182.685 36.6847 182.685 34.5404C182.685 32.3985 181.535 30.6721 180.015 30.6721ZM180.677 34.9824L181.522 36.6842H180.808L180.047 35.123H179.395V36.6842H178.799V32.173H180.195C180.926 32.173 181.404 32.7093 181.404 33.6121C181.407 34.3517 181.109 34.8036 180.68 34.9824H180.677ZM180.172 32.9471H179.395V34.3739H180.172C180.559 34.3739 180.791 34.1008 180.791 33.6598C180.791 33.1956 180.559 32.9471 180.172 32.9471Z" fill="#62CD5D"/>
</svg>
